<svg width="32" height="32" viewBox="0 0 32 32" fill="none" xmlns="http://www.w3.org/2000/svg">
  <!-- Background circle with gradient -->
  <defs>
    <linearGradient id="bgGradient" x1="0%" y1="0%" x2="100%" y2="100%">
      <stop offset="0%" style="stop-color:#ffffff;stop-opacity:1" />
      <stop offset="100%" style="stop-color:#f8fafc;stop-opacity:1" />
    </linearGradient>
    <linearGradient id="chartGradient" x1="0%" y1="0%" x2="100%" y2="100%">
      <stop offset="0%" style="stop-color:#3b82f6;stop-opacity:1" />
      <stop offset="100%" style="stop-color:#1d4ed8;stop-opacity:1" />
    </linearGradient>
  </defs>

  <!-- Background circle -->
  <circle cx="16" cy="16" r="15" fill="url(#bgGradient)" stroke="#e2e8f0" stroke-width="1"/>

  <!-- Chart bars with professional colors -->
  <rect x="6" y="20" width="2.5" height="6" fill="#059669" rx="1"/>
  <rect x="10" y="16" width="2.5" height="10" fill="url(#chartGradient)" rx="1"/>
  <rect x="14" y="18" width="2.5" height="8" fill="#059669" rx="1"/>
  <rect x="18" y="12" width="2.5" height="14" fill="url(#chartGradient)" rx="1"/>
  <rect x="22" y="14" width="2.5" height="12" fill="#059669" rx="1"/>

  <!-- Trend line with professional styling -->
  <path d="M6 22 L10 18 L14 20 L18 14 L22 16 L26 12" stroke="#dc2626" stroke-width="2" fill="none" stroke-linecap="round" stroke-linejoin="round"/>

  <!-- Data points -->
  <circle cx="6" cy="22" r="1.5" fill="#dc2626" stroke="#ffffff" stroke-width="0.5"/>
  <circle cx="10" cy="18" r="1.5" fill="#dc2626" stroke="#ffffff" stroke-width="0.5"/>
  <circle cx="14" cy="20" r="1.5" fill="#dc2626" stroke="#ffffff" stroke-width="0.5"/>
  <circle cx="18" cy="14" r="1.5" fill="#dc2626" stroke="#ffffff" stroke-width="0.5"/>
  <circle cx="22" cy="16" r="1.5" fill="#dc2626" stroke="#ffffff" stroke-width="0.5"/>
  <circle cx="26" cy="12" r="1.5" fill="#dc2626" stroke="#ffffff" stroke-width="0.5"/>

  <!-- Dollar symbol in corner -->
  <text x="24" y="10" font-family="Arial, sans-serif" font-size="6" font-weight="bold" fill="#374151">$</text>
</svg>